<svg width="38" height="29" viewBox="0 0 38 29" fill="none" xmlns="http://www.w3.org/2000/svg">
<g clip-path="url(#clip0_759_12401)">
<path d="M7.54306 14.9845L0.576172 1.63452H7.8158L7.84678 1.63613L14.8128 14.9845H7.54306Z" fill="#49AA7C"/>
<path d="M7.08163 28.3352L0.114746 14.9852H7.35434L7.38536 14.9868L14.3514 28.3352H7.08163Z" fill="url(#paint0_linear_759_12401)"/>
<path d="M29.8863 14.254L22.9194 0.904053H30.159L30.19 0.905665L37.1561 14.254H29.8863Z" fill="url(#paint1_linear_759_12401)"/>
<path d="M22.7879 0.906008L22.8467 0.902954H30.0379L14.1999 28.3352H6.95166L22.7879 0.906008Z" fill="#5AE2A1"/>
<path d="M29.3565 27.6024L22.3896 14.2524H29.6292L29.6603 14.2541L36.6263 27.6024H29.3565Z" fill="#49AA7C"/>
</g>
<defs>
<linearGradient id="paint0_linear_759_12401" x1="7.23307" y1="14.9852" x2="7.23307" y2="28.3352" gradientUnits="userSpaceOnUse">
<stop stop-color="#5AE2A1"/>
<stop offset="1" stop-color="#52AE82"/>
</linearGradient>
<linearGradient id="paint1_linear_759_12401" x1="30.0378" y1="0.904053" x2="30.0378" y2="14.254" gradientUnits="userSpaceOnUse">
<stop stop-color="#52AE82"/>
<stop offset="1" stop-color="#5AE2A1"/>
</linearGradient>
<clipPath id="clip0_759_12401">
<rect width="37.2" height="28.0386" fill="white" transform="translate(0 0.480713)"/>
</clipPath>
</defs>
</svg>
