<?xml version="1.0" encoding="UTF-8"?>
<svg width="112px" height="120px" version="1.1" xmlns="http://www.w3.org/2000/svg" xmlns:xlink="http://www.w3.org/1999/xlink">
    <title>Group</title>
    <g id="DES" stroke="none" stroke-width="1" fill="none" fill-rule="evenodd">
        <g id="1.0-Sphere-Branding" transform="translate(-469.000000, -383.000000)">
            <g id="Group" transform="translate(469.000000, 383.928571)">
                <g id="Sphere" fill-rule="nonzero">
                    <use fill="#131415" xlink:href="#path-1"></use>
                    <use fill="#202020" xlink:href="#path-1"></use>
                </g>
                <path d="M55.9994806,3.07142857 C86.9267994,3.07142857 112,28.1433579 112,59.0714286 C112,89.9984605 86.9267994,115.071429 55.9994806,115.071429 C25.0721619,115.071429 -4.26325641e-14,89.9984605 -4.26325641e-14,59.0714286 C-4.26325641e-14,28.1433579 25.0721619,3.07142857 55.9994806,3.07142857 Z M56.1112256,21.8686314 L55.9215225,21.8694005 C55.8203476,21.8698107 55.6787026,21.870385 55.4965877,21.8711234 C45.3651972,22.0353885 37.2027972,30.2994939 37.2027972,40.47003 L37.2027972,40.47003 L37.2052893,40.7776381 C37.3695543,50.9090285 45.6336597,59.0714286 55.8073287,59.071037 L55.8073287,59.071037 L89.2867133,59.0714286 L89.392635,59.0699497 C91.3983073,59.0138775 93.005194,57.3951781 93.005194,55.3515405 C93.005194,55.2699255 92.9858086,55.0825406 92.947038,54.7893859 C90.8312727,36.2925748 75.1619903,21.9251995 56.1112256,21.8686314 L56.1112256,21.8686314 Z" id="Combined-Shape" fill="#5EBDFF"></path>
            </g>
        </g>
    </g>
</svg>