<svg width="371" height="133" viewBox="0 0 371 133" fill="none" xmlns="http://www.w3.org/2000/svg">
<path d="M24.9424 54.0313H74.9649C88.7782 54.0313 99.9762 65.1961 99.9762 78.9688H49.9537C36.1404 78.9688 24.9424 67.8039 24.9424 54.0313Z" fill="url(#paint0_linear_1_3385)"/>
<path d="M24.9424 108.062H74.9649C88.7782 108.062 99.9762 96.8976 99.9762 83.125H49.9537C36.1404 83.125 24.9424 94.2899 24.9424 108.062Z" fill="url(#paint1_linear_1_3385)"/>
<path d="M24.9424 49.875H74.9649C88.7782 49.875 99.9762 38.7101 99.9762 24.9375H74.9649H49.9537C36.1404 24.9375 24.9424 36.1024 24.9424 49.875Z" fill="url(#paint2_linear_1_3385)"/>
<path d="M321.386 97.8028C316.717 97.8028 312.514 96.7843 308.779 94.7474C305.044 92.6522 302.096 89.7131 299.937 85.9302C297.836 82.1473 296.785 77.7823 296.785 72.8354C296.785 67.8885 297.865 63.5235 300.024 59.7406C302.242 55.9577 305.248 53.0477 309.042 51.0107C312.835 48.9156 317.067 47.868 321.736 47.868C326.405 47.868 330.637 48.9156 334.43 51.0107C338.224 53.0477 341.201 55.9577 343.36 59.7406C345.578 63.5235 346.687 67.8885 346.687 72.8354C346.687 77.7823 345.549 82.1473 343.273 85.9302C341.055 89.7131 338.02 92.6522 334.168 94.7474C330.374 96.7843 326.113 97.8028 321.386 97.8028ZM321.386 87.1524C323.604 87.1524 325.676 86.6286 327.602 85.581C329.586 84.4752 331.162 82.8456 332.329 80.6923C333.496 78.5389 334.08 75.92 334.08 72.8354C334.08 68.2377 332.854 64.7166 330.403 62.2723C328.01 59.7697 325.063 58.5184 321.561 58.5184C318.059 58.5184 315.112 59.7697 312.719 62.2723C310.384 64.7166 309.217 68.2377 309.217 72.8354C309.217 77.4331 310.355 80.9833 312.631 83.4858C314.966 85.9302 317.884 87.1524 321.386 87.1524Z" fill="#091717"/>
<path d="M278.462 56.1614C280.038 53.6006 282.081 51.5927 284.59 50.1377C287.158 48.6828 290.077 47.9553 293.345 47.9553V60.7882H290.106C286.254 60.7882 283.336 61.6903 281.351 63.4944C279.425 65.2986 278.462 68.4414 278.462 72.9227V97.0171H266.206V48.6537H278.462V56.1614Z" fill="#091717"/>
<path d="M248.285 58.693V82.089C248.285 83.7186 248.664 84.9117 249.423 85.6683C250.24 86.3667 251.583 86.7159 253.45 86.7159H259.141V97.0171H251.437C241.106 97.0171 235.941 92.012 235.941 82.0017V58.693H230.163V48.6537H235.941V36.6937H248.285V48.6537H259.141V58.693H248.285Z" fill="#091717"/>
<path d="M223.673 48.6536V97.0171H211.329V90.9062C209.753 93.0014 207.681 94.66 205.113 95.8822C202.603 97.0462 199.86 97.6282 196.883 97.6282C193.09 97.6282 189.734 96.8425 186.816 95.2711C183.897 93.6415 181.592 91.2845 179.899 88.1999C178.265 85.0572 177.448 81.3324 177.448 77.0257V48.6536H189.705V75.2797C189.705 79.1209 190.668 82.089 192.594 84.1842C194.52 86.2212 197.146 87.2396 200.473 87.2396C203.858 87.2396 206.514 86.2212 208.44 84.1842C210.366 82.089 211.329 79.1209 211.329 75.2797V48.6536H223.673Z" fill="#091717"/>
<path d="M147.387 97.6282C143.126 97.6282 139.274 96.9007 135.831 95.4457C132.445 93.9907 129.761 91.8956 127.776 89.1602C125.792 86.4249 124.771 83.1948 124.712 79.4701H137.844C138.019 81.9726 138.895 83.9514 140.471 85.4064C142.105 86.8614 144.323 87.5889 147.124 87.5889C149.984 87.5889 152.231 86.9196 153.865 85.581C155.499 84.1842 156.317 82.38 156.317 80.1685C156.317 78.3643 155.762 76.8802 154.653 75.7162C153.544 74.5523 152.143 73.6502 150.451 73.01C148.817 72.3116 146.54 71.555 143.622 70.7402C139.653 69.5762 136.414 68.4413 133.905 67.3356C131.453 66.1716 129.323 64.4547 127.514 62.1849C125.763 59.857 124.887 56.7724 124.887 52.9313C124.887 49.323 125.792 46.1802 127.601 43.503C129.41 40.8259 131.949 38.7889 135.218 37.3921C138.486 35.9372 142.222 35.2097 146.424 35.2097C152.727 35.2097 157.834 36.7519 161.744 39.8365C165.713 42.8628 167.902 47.1114 168.31 52.5821H154.828C154.712 50.4869 153.807 48.7701 152.114 47.4315C150.48 46.0347 148.291 45.3363 145.548 45.3363C143.155 45.3363 141.229 45.9474 139.77 47.1696C138.369 48.3918 137.669 50.1668 137.669 52.4948C137.669 54.1244 138.194 55.4921 139.245 56.5978C140.354 57.6454 141.696 58.5184 143.272 59.2168C144.906 59.857 147.182 60.6136 150.101 61.4866C154.069 62.6505 157.309 63.8145 159.818 64.9785C162.328 66.1425 164.488 67.8885 166.297 70.2164C168.106 72.5444 169.011 75.5998 169.011 79.3828C169.011 82.6419 168.165 85.6683 166.472 88.4618C164.779 91.2554 162.299 93.4961 159.03 95.1838C155.762 96.8134 151.881 97.6282 147.387 97.6282Z" fill="#091717"/>
<defs>
<linearGradient id="paint0_linear_1_3385" x1="24.9424" y1="24.9375" x2="87.2344" y2="108.239" gradientUnits="userSpaceOnUse">
<stop offset="0.465" stop-color="#2C6465"/>
<stop offset="1" stop-color="#10282F"/>
</linearGradient>
<linearGradient id="paint1_linear_1_3385" x1="24.9424" y1="24.9375" x2="87.2344" y2="108.239" gradientUnits="userSpaceOnUse">
<stop offset="0.465" stop-color="#2C6465"/>
<stop offset="1" stop-color="#10282F"/>
</linearGradient>
<linearGradient id="paint2_linear_1_3385" x1="24.9424" y1="24.9375" x2="87.2344" y2="108.239" gradientUnits="userSpaceOnUse">
<stop offset="0.465" stop-color="#2C6465"/>
<stop offset="1" stop-color="#10282F"/>
</linearGradient>
</defs>
</svg>
